<svg xmlns="http://www.w3.org/2000/svg" viewBox="0 0 1200 630" width="1200" height="630">
  <defs>
    <linearGradient id="bg" x1="0" y1="0" x2="1" y2="1">
      <stop offset="0%" stop-color="#0F4C75"/>
      <stop offset="100%" stop-color="#0A1929"/>
    </linearGradient>
    <radialGradient id="glow" cx="0.8" cy="0.2" r="0.6">
      <stop offset="0%" stop-color="#3DA5D9" stop-opacity="0.4"/>
      <stop offset="100%" stop-color="#3DA5D9" stop-opacity="0"/>
    </radialGradient>
  </defs>
  <rect width="1200" height="630" fill="url(#bg)"/>
  <rect width="1200" height="630" fill="url(#glow)"/>
  <g transform="translate(80,80)">
    <rect x="0" y="0" width="64" height="64" rx="16" fill="#3DA5D9"/>
    <path d="M22 18 v14 l-8 18 a4 4 0 0 0 3.7 6 h28.6 a4 4 0 0 0 3.7 -6 l-8 -18 v-14 z M22 18 h20" fill="none" stroke="#0A1929" stroke-width="2.5" stroke-linecap="round" stroke-linejoin="round"/>
    <text x="80" y="42" font-family="ui-serif, Georgia, serif" font-size="32" font-weight="600" fill="#FAFAF7">LabAdı</text>
  </g>
  <g transform="translate(80,260)">
    <text font-family="ui-serif, Georgia, serif" font-size="84" font-weight="500" fill="#FAFAF7" letter-spacing="-2">
      <tspan x="0" y="0">Gıdanızın güvenliği,</tspan>
      <tspan x="0" y="100" font-style="italic" fill="#3DA5D9">bilimin diliyle.</tspan>
    </text>
  </g>
  <g transform="translate(80,540)">
    <rect x="0" y="0" width="280" height="44" rx="22" fill="none" stroke="#FAFAF7" stroke-opacity="0.4"/>
    <text x="20" y="29" font-family="ui-sans-serif, system-ui, sans-serif" font-size="16" fill="#FAFAF7">ISO/IEC 17025 Akredite Laboratuvar</text>
  </g>
</svg>
